<svg width="244" height="244" viewBox="0 0 244 244" fill="none" xmlns="http://www.w3.org/2000/svg">
<circle opacity="0.15" cx="122" cy="122" r="122" fill="black"/>
<circle cx="122" cy="122" r="72" fill="white"/>
<g clip-path="url(#clip0_58_31)">
<path d="M122 194C141.096 194 159.409 186.414 172.912 172.912C186.414 159.409 194 141.096 194 122C194 102.904 186.414 84.5909 172.912 71.0883C159.409 57.5857 141.096 50 122 50C102.904 50 84.5909 57.5857 71.0883 71.0883C57.5857 84.5909 50 102.904 50 122C50 141.096 57.5857 159.409 71.0883 172.912C84.5909 186.414 102.904 194 122 194ZM153.781 108.781L117.781 144.781L113 149.562L108.219 144.781L90.2188 126.781L85.4375 122L95 112.466L99.7812 117.247L113 130.466L144.219 99.2188L149 94.4375L158.534 104L153.753 108.781H153.781Z" fill="#195F7A"/>
</g>
<defs>
<clipPath id="clip0_58_31">
<rect width="144" height="144" fill="white" transform="translate(50 50)"/>
</clipPath>
</defs>
</svg>
